<svg xmlns="http://www.w3.org/2000/svg" width="31.74mm" height="9.2mm" viewBox="0 0 89.96 26.09">
  <defs>
    <style>
      .cls-1, .cls-2 {
        fill: #fff;
      }

      .cls-1 {
        fill-rule: evenodd;
      }
    </style>
  </defs>
  <title>Asset 3</title>
  <g id="Layer_2" data-name="Layer 2">
    <g id="Layer_1-2" data-name="Layer 1">
      <path class="cls-1" d="M41.9,14.06H38.54v7.69s.07,1.2-.48,1.2-1-1.2-1-1.2V14.06H34.45v7.69s-.35,1.2-1,1.2-.72-1-.72-1V16.46a2.35,2.35,0,0,0-2.55-2.4,3,3,0,0,0-2.73,1.68,2.2,2.2,0,0,0-2-1.68,3.2,3.2,0,0,0-2.52,1.44,2.77,2.77,0,0,0-2.1-1.44,3.58,3.58,0,0,0-2.7,1.44A2.61,2.61,0,0,0,16,14.06c-1.47,0-2.64,1.68-2.64,1.68s0-1.68-.24-1.68h-2.4v12h3.12V18.14s.24-1.2,1-1.2.72,1,.72,1v8.17h2.64V18.14s.25-1.2,1.08-1.2.84,1,.84,1v8.17H23.4V18.14s.15-1.2,1-1.2.72,1,.72,1v8.17h2.64V18.14s.21-1.22,1.05-1.22.87,1,.87,1V23a4.79,4.79,0,0,0,.13.87c.26.76.94,2.22,2.32,2.2,0,0,1.7.38,3.66-2.42,0,0,1.8,2.42,3.74,2.42s2.4-2.64,2.4-2.64Z"/>
      <polygon class="cls-1" points="47.17 14.06 49.33 14.06 45.49 26.07 43.32 26.07 47.17 14.06"/>
      <polygon class="cls-1" points="51.73 14.06 50.53 15.26 55.34 20.07 50.53 24.87 51.73 26.07 57.98 20.07 51.73 14.06"/>
      <polygon class="cls-1" points="7.29 14.06 8.49 15.26 3.68 20.07 8.49 24.87 7.29 26.07 1.04 20.07 7.29 14.06"/>
      <g>
        <path class="cls-2" d="M3.57,0l.25,0h.49l.24,0V7.23a7.08,7.08,0,0,1-.85.18,6.72,6.72,0,0,1-1.05.08,3.81,3.81,0,0,1-1-.13A2.09,2.09,0,0,1,.21,6.11,3.08,3.08,0,0,1,0,4.9,3.29,3.29,0,0,1,.19,3.77,2.52,2.52,0,0,1,.71,2.9a2.34,2.34,0,0,1,.81-.57,2.7,2.7,0,0,1,1.06-.2,3.55,3.55,0,0,1,.52,0,3.48,3.48,0,0,1,.46.1Zm0,3.07A2.1,2.1,0,0,0,3.14,3a3,3,0,0,0-.5,0,1.56,1.56,0,0,0-.71.15,1.38,1.38,0,0,0-.5.41,1.79,1.79,0,0,0-.29.62A3,3,0,0,0,1,4.9,1.82,1.82,0,0,0,1.5,6.26a1.69,1.69,0,0,0,1.2.41l.48,0a2.32,2.32,0,0,0,.39-.08Z"/>
        <path class="cls-2" d="M6.44,3H5.79a1.25,1.25,0,0,1,0-.19c0-.07,0-.14,0-.21s0-.13,0-.21a1.25,1.25,0,0,1,0-.18H7.41V7.37l-.24,0H6.69l-.25,0ZM6.22,1.11a2.08,2.08,0,0,1,0-.26c0-.09,0-.18,0-.25s0-.16,0-.25a1.79,1.79,0,0,1,0-.25l.28,0H7l.27,0a1.79,1.79,0,0,1,0,.25c0,.09,0,.18,0,.25s0,.16,0,.25a2.08,2.08,0,0,1,0,.26L7,1.14H6.5Z"/>
        <path class="cls-2" d="M8.93,6.44a3.26,3.26,0,0,0,.6.17,3.3,3.3,0,0,0,.65.06,1.9,1.9,0,0,0,.44,0A1.17,1.17,0,0,0,11,6.48a.84.84,0,0,0,.25-.25.58.58,0,0,0,.1-.33.65.65,0,0,0-.08-.33.69.69,0,0,0-.2-.22,1.34,1.34,0,0,0-.29-.16l-.35-.12L10,5a2.53,2.53,0,0,1-.93-.54,1.12,1.12,0,0,1-.29-.81,1.33,1.33,0,0,1,.49-1.08,2.19,2.19,0,0,1,1.42-.4,3.91,3.91,0,0,1,.77.08,4.71,4.71,0,0,1,.65.17,2.46,2.46,0,0,1-.07.4,2.36,2.36,0,0,1-.14.37L11.42,3a2.75,2.75,0,0,0-.66-.08,1.56,1.56,0,0,0-.65.13.47.47,0,0,0-.29.46.56.56,0,0,0,.07.29.65.65,0,0,0,.19.21,1.22,1.22,0,0,0,.27.14l.33.12.44.15a3.21,3.21,0,0,1,.46.19,1.34,1.34,0,0,1,.37.27,1.28,1.28,0,0,1,.25.4,1.65,1.65,0,0,1-.06,1.24,1.49,1.49,0,0,1-.42.52,2,2,0,0,1-.67.33,2.91,2.91,0,0,1-.86.12,4.72,4.72,0,0,1-.84-.07,4.25,4.25,0,0,1-.67-.17,2,2,0,0,1,.08-.41C8.83,6.71,8.88,6.57,8.93,6.44Z"/>
        <path class="cls-2" d="M14.31,5a1.67,1.67,0,0,0,.44,1.23A1.73,1.73,0,0,0,16,6.67a3.67,3.67,0,0,0,1.35-.25,1.51,1.51,0,0,1,.13.37,2.4,2.4,0,0,1,.06.42,3.34,3.34,0,0,1-.73.21,5,5,0,0,1-.88.07,3.31,3.31,0,0,1-1.2-.2,2.11,2.11,0,0,1-1.3-1.39,3.59,3.59,0,0,1-.15-1.07,3.77,3.77,0,0,1,.14-1.06,2.4,2.4,0,0,1,.45-.86,2.15,2.15,0,0,1,.75-.58,2.49,2.49,0,0,1,1.08-.21,2.24,2.24,0,0,1,.93.18,1.89,1.89,0,0,1,.67.5,2.14,2.14,0,0,1,.41.75,3.07,3.07,0,0,1,.14.95c0,.09,0,.19,0,.29s0,.19,0,.26Zm2.54-.74a1.88,1.88,0,0,0-.08-.54,1.37,1.37,0,0,0-.22-.45,1.06,1.06,0,0,0-.37-.3,1.16,1.16,0,0,0-.54-.12,1.18,1.18,0,0,0-.94.37,1.81,1.81,0,0,0-.4,1Z"/>
        <path class="cls-2" d="M19.13,2.24l.22,0h.42l.21,0c0,.1,0,.24.06.41a3.74,3.74,0,0,1,0,.42,2,2,0,0,1,.25-.34,2,2,0,0,1,.35-.31,1.83,1.83,0,0,1,1-.3,1.59,1.59,0,0,1,1.3.5,2.29,2.29,0,0,1,.42,1.5V7.37l-.25,0h-.49l-.25,0v-3a2,2,0,0,0-.22-1,.78.78,0,0,0-.7-.33,1.42,1.42,0,0,0-.53.1,1.18,1.18,0,0,0-.44.31,1.57,1.57,0,0,0-.31.54,2.5,2.5,0,0,0-.11.81v2.6l-.25,0h-.5l-.25,0ZM19.51.69A1.35,1.35,0,0,1,19.9.34,1.09,1.09,0,0,1,20.47.2a1.15,1.15,0,0,1,.4.07l.36.15.35.15A1,1,0,0,0,22,.64a.81.81,0,0,0,.31-.06,1.34,1.34,0,0,0,.35-.25A1.72,1.72,0,0,1,23,.94a1.51,1.51,0,0,1-.4.33,1.13,1.13,0,0,1-.56.14,1.15,1.15,0,0,1-.4-.07l-.37-.15L20.86,1A1,1,0,0,0,20.5,1a.75.75,0,0,0-.34.07,1.8,1.8,0,0,0-.34.24A2.15,2.15,0,0,1,19.63,1,1.26,1.26,0,0,1,19.51.69Z"/>
        <path class="cls-2" d="M27,7.49a2.51,2.51,0,0,1-1-.21,2.08,2.08,0,0,1-.75-.57,2.34,2.34,0,0,1-.45-.85,3.72,3.72,0,0,1-.14-1.06,3.72,3.72,0,0,1,.14-1.06,2.35,2.35,0,0,1,.45-.85,2.13,2.13,0,0,1,.75-.57,2.73,2.73,0,0,1,2.1,0,2.13,2.13,0,0,1,.75.57,2.35,2.35,0,0,1,.44.85,3.72,3.72,0,0,1,.15,1.06,3.72,3.72,0,0,1-.15,1.06,2.35,2.35,0,0,1-.44.85,2.09,2.09,0,0,1-.75.57A2.51,2.51,0,0,1,27,7.49Zm0-.79a1.14,1.14,0,0,0,1-.5,2.5,2.5,0,0,0,.33-1.39A2.48,2.48,0,0,0,28,3.42a1.14,1.14,0,0,0-1-.5,1.13,1.13,0,0,0-1,.5,2.51,2.51,0,0,0-.33,1.39A2.54,2.54,0,0,0,26,6.2,1.12,1.12,0,0,0,27,6.7Z"/>
        <path class="cls-2" d="M34.1,1.82a.87.87,0,0,0,.28.68,1.35,1.35,0,0,0,.92.25h2.18L38.4,1.5h.08V2.76h1.3a1.71,1.71,0,0,1,0,.39c0,.07,0,.14,0,.21a2,2,0,0,1,0,.21h-1.3V5a2.55,2.55,0,0,1-.21,1.07,2,2,0,0,1-.6.76,2.61,2.61,0,0,1-.94.46,4.51,4.51,0,0,1-1.21.15,4.27,4.27,0,0,1-1-.12A2.59,2.59,0,0,1,33.64,7a1.9,1.9,0,0,1-.6-.67,2.07,2.07,0,0,1-.22-1,2.27,2.27,0,0,1,.09-.65,2.36,2.36,0,0,1,.27-.59,2.19,2.19,0,0,1,.41-.48,1.8,1.8,0,0,1,.5-.32,2,2,0,0,1-.73-.54,1.45,1.45,0,0,1-.29-1A1.63,1.63,0,0,1,33.26,1a1.56,1.56,0,0,1,.46-.54A2,2,0,0,1,34.4.17a3.23,3.23,0,0,1,.84-.1,4.59,4.59,0,0,1,.58,0,3.34,3.34,0,0,1,.67.16,1.77,1.77,0,0,1-.06.41,1.29,1.29,0,0,1-.16.34,3.42,3.42,0,0,0-.5-.11,3.25,3.25,0,0,0-.47,0,1.58,1.58,0,0,0-.55.08,1.12,1.12,0,0,0-.37.22.81.81,0,0,0-.21.3A1,1,0,0,0,34.1,1.82Zm1.51,4.77a2.61,2.61,0,0,0,1-.15,1.45,1.45,0,0,0,.58-.4,1.4,1.4,0,0,0,.29-.58,2.88,2.88,0,0,0,.08-.68V3.59h-2a1.63,1.63,0,0,0-.65.13,1.4,1.4,0,0,0-.49.35,1.59,1.59,0,0,0-.31.5,1.66,1.66,0,0,0-.11.6,1.31,1.31,0,0,0,.43,1.06A1.88,1.88,0,0,0,35.61,6.59Z"/>
        <path class="cls-2" d="M46.32,0l.25,0h.49l.24,0V7.23a7.08,7.08,0,0,1-.85.18,6.72,6.72,0,0,1-1.05.08,3.81,3.81,0,0,1-1-.13A2.09,2.09,0,0,1,43,6.11a3.08,3.08,0,0,1-.21-1.21,3.29,3.29,0,0,1,.19-1.13,2.52,2.52,0,0,1,.52-.87,2.34,2.34,0,0,1,.81-.57,2.7,2.7,0,0,1,1.06-.2,3.55,3.55,0,0,1,.52,0,3.48,3.48,0,0,1,.46.1Zm0,3.07A2.1,2.1,0,0,0,45.89,3a3,3,0,0,0-.5,0,1.56,1.56,0,0,0-.71.15,1.38,1.38,0,0,0-.5.41,1.79,1.79,0,0,0-.29.62,3,3,0,0,0-.1.78,1.82,1.82,0,0,0,.45,1.36,1.69,1.69,0,0,0,1.2.41l.48,0a2.32,2.32,0,0,0,.39-.08Z"/>
        <path class="cls-2" d="M49.63,5a1.67,1.67,0,0,0,.44,1.23,1.73,1.73,0,0,0,1.23.39,3.67,3.67,0,0,0,1.35-.25,1.53,1.53,0,0,1,.13.37,2.4,2.4,0,0,1,.06.42,3.34,3.34,0,0,1-.72.21,5,5,0,0,1-.87.07,3.31,3.31,0,0,1-1.2-.2,2.11,2.11,0,0,1-1.3-1.39,3.59,3.59,0,0,1-.15-1.07,3.77,3.77,0,0,1,.14-1.06,2.4,2.4,0,0,1,.45-.86,2.15,2.15,0,0,1,.75-.58A2.49,2.49,0,0,1,51,2.12a2.24,2.24,0,0,1,.93.18,1.89,1.89,0,0,1,.67.5,2.13,2.13,0,0,1,.41.75,3.06,3.06,0,0,1,.14.95c0,.09,0,.19,0,.29s0,.19,0,.26Zm2.54-.74a1.86,1.86,0,0,0-.08-.54,1.37,1.37,0,0,0-.22-.45A1.06,1.06,0,0,0,51.5,3,1.16,1.16,0,0,0,51,2.91a1.18,1.18,0,0,0-.94.37,1.81,1.81,0,0,0-.4,1Z"/>
        <path class="cls-2" d="M54.36,6.44a3.25,3.25,0,0,0,.59.17,3.31,3.31,0,0,0,.65.06,1.89,1.89,0,0,0,.44,0,1.17,1.17,0,0,0,.37-.15.84.84,0,0,0,.25-.25.58.58,0,0,0,.09-.33.66.66,0,0,0-.07-.33.71.71,0,0,0-.2-.22,1.36,1.36,0,0,0-.29-.16l-.36-.12L55.48,5a2.53,2.53,0,0,1-.93-.54,1.12,1.12,0,0,1-.29-.81,1.33,1.33,0,0,1,.48-1.08,2.19,2.19,0,0,1,1.42-.4,3.91,3.91,0,0,1,.77.08,4.76,4.76,0,0,1,.66.17,2.51,2.51,0,0,1-.08.4,2.41,2.41,0,0,1-.13.37L56.85,3a2.75,2.75,0,0,0-.66-.08,1.56,1.56,0,0,0-.66.13.47.47,0,0,0-.28.46.56.56,0,0,0,.07.29.66.66,0,0,0,.19.21,1.24,1.24,0,0,0,.27.14l.34.12.44.15A3.21,3.21,0,0,1,57,4.6a1.33,1.33,0,0,1,.37.27,1.27,1.27,0,0,1,.25.4A1.52,1.52,0,0,1,57.16,7a2,2,0,0,1-.67.33,2.91,2.91,0,0,1-.86.12,4.71,4.71,0,0,1-.84-.07,4.22,4.22,0,0,1-.67-.17,1.92,1.92,0,0,1,.08-.41C54.26,6.71,54.3,6.57,54.36,6.44Z"/>
        <path class="cls-2" d="M61.71,4a1,1,0,0,0-.3-.82,1.41,1.41,0,0,0-.87-.23,3.75,3.75,0,0,0-.66.05,5.18,5.18,0,0,0-.59.14,1.55,1.55,0,0,1-.19-.79,4.51,4.51,0,0,1,.75-.17,5.44,5.44,0,0,1,.79-.06,2.24,2.24,0,0,1,1.52.46A1.84,1.84,0,0,1,62.68,4V7.24l-.85.17a6.07,6.07,0,0,1-1,.08,4,4,0,0,1-.89-.09,1.83,1.83,0,0,1-.67-.29,1.35,1.35,0,0,1-.42-.51,1.72,1.72,0,0,1-.15-.75,1.53,1.53,0,0,1,.65-1.3A2.12,2.12,0,0,1,60,4.24a3.12,3.12,0,0,1,.82-.11l.53,0,.34,0Zm0,1-.38,0-.39,0a1.63,1.63,0,0,0-.95.23.8.8,0,0,0-.33.7.86.86,0,0,0,.11.47.76.76,0,0,0,.28.26.94.94,0,0,0,.36.11l.38,0,.48,0a2.76,2.76,0,0,0,.43-.08Z"/>
        <path class="cls-2" d="M64.17,2.24l.21,0h.43l.2,0c0,.1,0,.23.06.39a3.63,3.63,0,0,1,0,.42,2.06,2.06,0,0,1,.55-.59,1.47,1.47,0,0,1,.88-.25h.17l.15,0a1.79,1.79,0,0,1,0,.19,2.07,2.07,0,0,1,0,.21,2.22,2.22,0,0,1,0,.25c0,.09,0,.17,0,.25l-.17,0h-.13a1.72,1.72,0,0,0-.51.08,1.07,1.07,0,0,0-.44.26,1.31,1.31,0,0,0-.31.52,2.62,2.62,0,0,0-.12.85V7.37l-.25,0h-.49l-.25,0Z"/>
        <path class="cls-2" d="M67.89,2.24l.21,0h.43l.2,0c0,.1,0,.23.06.39a3.63,3.63,0,0,1,0,.42,2.06,2.06,0,0,1,.55-.59,1.47,1.47,0,0,1,.88-.25h.17l.15,0a1.79,1.79,0,0,1,0,.19,2.07,2.07,0,0,1,0,.21,2.22,2.22,0,0,1,0,.25c0,.09,0,.17,0,.25l-.17,0h-.13a1.72,1.72,0,0,0-.51.08,1.07,1.07,0,0,0-.44.26A1.31,1.31,0,0,0,69,4a2.62,2.62,0,0,0-.12.85V7.37l-.25,0h-.49l-.25,0Z"/>
        <path class="cls-2" d="M73.54,7.49a2.51,2.51,0,0,1-1-.21,2.09,2.09,0,0,1-.75-.57,2.34,2.34,0,0,1-.45-.85,3.72,3.72,0,0,1-.14-1.06,3.72,3.72,0,0,1,.14-1.06,2.35,2.35,0,0,1,.45-.85,2.13,2.13,0,0,1,.75-.57,2.73,2.73,0,0,1,2.1,0,2.12,2.12,0,0,1,.75.57,2.35,2.35,0,0,1,.45.85,3.72,3.72,0,0,1,.14,1.06,3.72,3.72,0,0,1-.14,1.06,2.34,2.34,0,0,1-.45.85,2.07,2.07,0,0,1-.75.57A2.51,2.51,0,0,1,73.54,7.49Zm0-.79a1.14,1.14,0,0,0,1-.5,2.51,2.51,0,0,0,.33-1.39,2.48,2.48,0,0,0-.33-1.39,1.14,1.14,0,0,0-1-.5,1.13,1.13,0,0,0-1,.5,2.51,2.51,0,0,0-.33,1.39,2.54,2.54,0,0,0,.33,1.39A1.12,1.12,0,0,0,73.54,6.7Z"/>
        <path class="cls-2" d="M77.21,0l.25,0h.49l.25,0V5.82a1.53,1.53,0,0,0,0,.44.6.6,0,0,0,.14.25.4.4,0,0,0,.2.11l.25,0H79l.2,0a3.06,3.06,0,0,1,.09.76,1.31,1.31,0,0,1-.34.06l-.37,0a2,2,0,0,1-.54-.07,1.14,1.14,0,0,1-.44-.23,1.08,1.08,0,0,1-.3-.43A1.78,1.78,0,0,1,77.21,6Z"/>
        <path class="cls-2" d="M80.19,0l.25,0h.49l.25,0V5.82a1.53,1.53,0,0,0,0,.44.6.6,0,0,0,.14.25.4.4,0,0,0,.2.11l.25,0H82l.2,0a3.06,3.06,0,0,1,.09.76,1.31,1.31,0,0,1-.34.06l-.37,0A2,2,0,0,1,81,7.37a1.14,1.14,0,0,1-.44-.23,1.08,1.08,0,0,1-.3-.43A1.78,1.78,0,0,1,80.19,6Z"/>
        <path class="cls-2" d="M85.27,7.49a2.51,2.51,0,0,1-1-.21,2.09,2.09,0,0,1-.75-.57A2.34,2.34,0,0,1,83,5.87a3.72,3.72,0,0,1-.14-1.06A3.72,3.72,0,0,1,83,3.75a2.35,2.35,0,0,1,.45-.85,2.13,2.13,0,0,1,.75-.57,2.73,2.73,0,0,1,2.1,0,2.12,2.12,0,0,1,.75.57,2.35,2.35,0,0,1,.45.85,3.72,3.72,0,0,1,.14,1.06,3.72,3.72,0,0,1-.14,1.06,2.34,2.34,0,0,1-.45.85,2.07,2.07,0,0,1-.75.57A2.51,2.51,0,0,1,85.27,7.49Zm0-.79a1.14,1.14,0,0,0,1-.5,2.51,2.51,0,0,0,.33-1.39,2.48,2.48,0,0,0-.33-1.39,1.14,1.14,0,0,0-1-.5,1.13,1.13,0,0,0-1,.5,2.51,2.51,0,0,0-.33,1.39,2.54,2.54,0,0,0,.33,1.39A1.12,1.12,0,0,0,85.27,6.7Z"/>
        <path class="cls-2" d="M88.81,3.34c0-.09,0-.18,0-.27a2.55,2.55,0,0,1,0-.28,2.85,2.85,0,0,1,0-.29c0-.1,0-.19,0-.29l.27,0h.56l.28,0c0,.09,0,.19,0,.28a2.69,2.69,0,0,1,0,.56c0,.09,0,.19,0,.28l-.27,0h-.56Zm0,4c0-.09,0-.18,0-.28a2.54,2.54,0,0,1,0-.27,2.84,2.84,0,0,1,0-.29c0-.1,0-.19,0-.29l.27,0h.56l.28,0c0,.09,0,.19,0,.28a2.68,2.68,0,0,1,0,.56c0,.09,0,.19,0,.28l-.27,0h-.56Z"/>
      </g>
    </g>
  </g>
</svg>
